<svg id="Layer_1" data-name="Layer 1" xmlns="http://www.w3.org/2000/svg" viewBox="0 0 441.39 100"><defs><style>.cls-1{fill:#c51023;}.cls-2{fill:#333;}</style></defs><title>HV_Logo_Horizontal_Full</title><rect class="cls-1" width="12" height="100"/><rect class="cls-1" x="88" width="12" height="100"/><rect class="cls-1" x="24" y="56" width="52" height="12"/><rect class="cls-1" x="24" y="32" width="52" height="12"/><path class="cls-2" d="M162.65,70.5V54.64H147.92V70.5h-5.51V34.19h5.51v15.5h14.74V34.19h5.51V70.5Z" transform="translate(-1.8 -2.5)"/><path class="cls-2" d="M180.3,70.5V34.19h5.51V70.5Z" transform="translate(-1.8 -2.5)"/><path class="cls-2" d="M210.88,70.5H206.6L194.67,34.19h5.71l8.36,26.42,8.36-26.42h5.81Z" transform="translate(-1.8 -2.5)"/><path class="cls-2" d="M231.84,70.5V34.19H255v4.95h-17.7V49.75h15.09v4.9H237.35V65.55H255V70.5Z" transform="translate(-1.8 -2.5)"/><path class="cls-2" d="M265.16,70.5V34.19h5.51V65.55h17.49V70.5Z" transform="translate(-1.8 -2.5)"/><path class="cls-2" d="M318.67,66.93a13.73,13.73,0,0,1-19.12,0C296,63.36,296,59.33,296,52.35s-.05-11,3.52-14.58a13.73,13.73,0,0,1,19.12,0c3.57,3.57,3.47,7.6,3.47,14.58S322.24,63.36,318.67,66.93Zm-4.18-25.85a7.63,7.63,0,0,0-10.81,0c-1.79,1.94-2.14,4-2.14,11.27s.36,9.33,2.14,11.27a7.63,7.63,0,0,0,10.81,0c1.79-1.94,2.14-4,2.14-11.27S316.27,43,314.48,41.08Z" transform="translate(-1.8 -2.5)"/><path class="cls-2" d="M345.08,70.81a13.15,13.15,0,0,1-9.54-3.88C332,63.36,332,59.33,332,52.35s-.05-11,3.52-14.58a13.15,13.15,0,0,1,9.54-3.88c6.68,0,11.68,3.93,13,11.17h-5.61c-.87-3.67-3.31-6.22-7.34-6.22A7.25,7.25,0,0,0,339.73,41c-1.78,1.94-2.19,4-2.19,11.32s.41,9.38,2.19,11.32a7.25,7.25,0,0,0,5.35,2.19c4,0,6.53-2.55,7.39-6.22H358C356.81,66.88,351.66,70.81,345.08,70.81Z" transform="translate(-1.8 -2.5)"/><path class="cls-2" d="M368.08,70.5V34.19h5.51V70.5Z" transform="translate(-1.8 -2.5)"/><path class="cls-2" d="M398.55,39.14V70.5H393V39.14H383V34.19h25.5v4.95Z" transform="translate(-1.8 -2.5)"/><path class="cls-2" d="M432.33,55.56V70.5h-5.51V55.56L416,34.19h6l7.6,16,7.6-16h6Z" transform="translate(-1.8 -2.5)"/></svg>